<?xml version="1.0" encoding="utf-8"?>
<!-- Generator: Adobe Illustrator 16.0.0, SVG Export Plug-In . SVG Version: 6.00 Build 0)  -->
<!DOCTYPE svg PUBLIC "-//W3C//DTD SVG 1.1//EN" "http://www.w3.org/Graphics/SVG/1.1/DTD/svg11.dtd">
<svg version="1.1" id="Layer_1" xmlns:sketch="http://www.bohemiancoding.com/sketch/ns"
	 xmlns="http://www.w3.org/2000/svg" xmlns:xlink="http://www.w3.org/1999/xlink" x="0px" y="0px" width="32.75px"
	 height="49.986px" viewBox="0 0 32.75 49.986" enable-background="new 0 0 32.75 49.986" xml:space="preserve">
<title>marker</title>
<g id="Page-1" sketch:type="MSPage">
	<g id="marker" sketch:type="MSLayerGroup">
		<g id="Mask" sketch:type="MSShapeGroup">
			<path id="path-1_1_" fill="#250065" d="M16.475,49.861L2.433,27.42c-1.388-2.679-2.183-5.793-2.183-9.115
				c0-10.023,7.226-18.147,16.137-18.147c8.912,0,16.139,8.124,16.139,18.147c0,3.317-0.795,6.427-2.176,9.104L16.475,49.861z"/>
		</g>
		<defs>
			<filter id="Adobe_OpacityMaskFilter" filterUnits="userSpaceOnUse" x="4.967" y="5.725" width="22.842" height="22.241">
				<feColorMatrix  type="matrix" values="1 0 0 0 0  0 1 0 0 0  0 0 1 0 0  0 0 0 1 0"/>
			</filter>
		</defs>
		<mask maskUnits="userSpaceOnUse" x="4.967" y="5.725" width="22.842" height="22.241" id="mask-2">
			<g filter="url(#Adobe_OpacityMaskFilter)">
				<path id="path-1" fill="#FFFFFF" d="M16.496,56.847L-0.329,30.551c-1.663-3.139-2.615-6.788-2.615-10.681
					c0-11.744,8.658-21.265,19.335-21.265c10.679,0,19.337,9.52,19.337,21.265c0,3.888-0.952,7.531-2.605,10.668L16.496,56.847z"/>
			</g>
		</mask>
		<path id="Fill-4" sketch:type="MSShapeGroup" mask="url(#mask-2)" fill="#FFFFFF" d="M27.809,16.845
			c0,6.142-5.112,11.12-11.421,11.121c-6.308,0-11.421-4.979-11.421-11.12c0-6.142,5.113-11.121,11.421-11.121
			C22.696,5.725,27.809,10.704,27.809,16.845"/>
	</g>
</g>
</svg>
