<?xml version="1.0" encoding="utf-8"?>
<!-- Generator: Adobe Illustrator 16.0.0, SVG Export Plug-In . SVG Version: 6.00 Build 0)  -->
<!DOCTYPE svg PUBLIC "-//W3C//DTD SVG 1.1//EN" "http://www.w3.org/Graphics/SVG/1.1/DTD/svg11.dtd">
<svg version="1.1" id="Layer_1" xmlns:sketch="http://www.bohemiancoding.com/sketch/ns"
	 xmlns="http://www.w3.org/2000/svg" xmlns:xlink="http://www.w3.org/1999/xlink" x="0px" y="0px" width="19px" height="29px"
	 viewBox="0 0 19 29" enable-background="new 0 0 19 29" xml:space="preserve">
<g id="Page-1" sketch:type="MSPage" opacity="0.5">
	<g id="Fill-4" sketch:type="MSLayerGroup">
		<g id="Mask" sketch:type="MSShapeGroup">
			<path id="path-1_1_" fill="#250065" d="M1.487,16.23c-0.797-1.539-1.253-3.326-1.253-5.234C0.234,5.24,4.383,0.575,9.5,0.575
				c5.118,0,9.268,4.665,9.268,10.421c0,1.905-0.455,3.69-1.248,5.229L9.55,29.117L1.487,16.23z"/>
		</g>
		<defs>
			<filter id="Adobe_OpacityMaskFilter" filterUnits="userSpaceOnUse" x="4.025" y="4.064" width="10.948" height="10.899">
				<feColorMatrix  type="matrix" values="1 0 0 0 0  0 1 0 0 0  0 0 1 0 0  0 0 0 1 0"/>
			</filter>
		</defs>
		<mask maskUnits="userSpaceOnUse" x="4.025" y="4.064" width="10.948" height="10.899" id="mask-2">
			<g filter="url(#Adobe_OpacityMaskFilter)">
				<path id="path-1" fill="#FFFFFF" d="M1.487,16.23c-0.797-1.539-1.253-3.326-1.253-5.234C0.234,5.24,4.383,0.575,9.5,0.575
					c5.118,0,9.268,4.665,9.268,10.421c0,1.905-0.455,3.69-1.248,5.229L9.55,29.117L1.487,16.23z"/>
			</g>
		</mask>
		<path sketch:type="MSShapeGroup" mask="url(#mask-2)" fill="#FFFFFF" d="M14.973,9.514c0,3.009-2.451,5.449-5.475,5.449
			c-3.023,0-5.473-2.44-5.473-5.449c0-3.009,2.45-5.45,5.473-5.45C12.521,4.064,14.973,6.505,14.973,9.514"/>
	</g>
	<ellipse opacity="0.5" fill="#FFFFFF" cx="9.374" cy="9.543" rx="5.349" ry="5.479"/>
</g>
</svg>
